<svg xmlns="http://www.w3.org/2000/svg" xmlns:xlink="http://www.w3.org/1999/xlink" xmlns:lucid="lucid" width="1260" height="840"><g transform="translate(-360 -180)" lucid:page-tab-id="0_0"><path d="M500 206c0-3.3 2.7-6 6-6h788c3.3 0 6 2.7 6 6v788c0 3.3-2.7 6-6 6H506c-3.3 0-6-2.7-6-6z" stroke="#5e5e5e" stroke-width="3" fill-opacity="0"/><use xlink:href="#a" transform="matrix(1,0,0,1,508,208) translate(294.71604938271605 17.77777777777778)"/><use xlink:href="#b" transform="matrix(1,0,0,1,508,208) translate(352.4320987654321 17.77777777777778)"/><use xlink:href="#c" transform="matrix(1,0,0,1,508,208) translate(415.2716049382716 17.77777777777778)"/><path d="M439.75 499.75c0 10.9-8.84 19.75-19.75 19.75-10.9 0-19.75-8.84-19.75-19.75 0-10.9 8.84-19.75 19.75-19.75 10.9 0 19.75 8.84 19.75 19.75z" stroke="#5e5e5e" stroke-width="3" fill="#fff"/><path d="M420 519.5v49.3c0 3.3 1.44 8.27 3.2 11.07L460 638m-40-63.2L380 638m0-98.75h80" stroke="#5e5e5e" stroke-width="3" fill="none"/><path d="M380 486c0-3.3 2.7-6 6-6h68c3.3 0 6 2.7 6 6v168c0 3.3-2.7 6-6 6h-68c-3.3 0-6-2.7-6-6z" fill="none"/><use xlink:href="#d" transform="matrix(1,0,0,1,300,638) translate(81.79012345679013 17.77777777777778)"/><path d="M740 540c0 33.14-35.82 60-80 60s-80-26.86-80-60 35.82-60 80-60 80 26.86 80 60z" stroke="#5e5e5e" stroke-width="3" fill="#fff"/><use xlink:href="#e" transform="matrix(1,0,0,1,580,480) translate(25.154999999999994 51.9)"/><use xlink:href="#f" transform="matrix(1,0,0,1,580,480) translate(80.105 51.9)"/><use xlink:href="#g" transform="matrix(1,0,0,1,580,480) translate(31.12999999999999 73.5)"/><use xlink:href="#h" transform="matrix(1,0,0,1,580,480) translate(57.07999999999999 73.5)"/><use xlink:href="#i" transform="matrix(1,0,0,1,580,480) translate(103.98 73.5)"/><path d="M461 540h116.5" stroke="#5e5e5e" stroke-width="2" fill="none"/><path d="M461.03 541H457v-.25h3V539h1.03zM578.5 539.98v.43l.02.6h-1.05v-2h1.06z" fill="#5e5e5e"/><path d="M940 340c0 33.14-35.82 60-80 60s-80-26.86-80-60 35.82-60 80-60 80 26.86 80 60z" stroke="#5e5e5e" stroke-width="3" fill="#fff"/><use xlink:href="#j" transform="matrix(1,0,0,1,780,280) translate(51.53 40.65)"/><use xlink:href="#k" transform="matrix(1,0,0,1,780,280) translate(16.68 62.25)"/><use xlink:href="#l" transform="matrix(1,0,0,1,780,280) translate(83.48000000000002 62.25)"/><use xlink:href="#m" transform="matrix(1,0,0,1,780,280) translate(122.38000000000001 62.25)"/><use xlink:href="#n" transform="matrix(1,0,0,1,780,280) translate(59.05499999999999 83.85000000000001)"/><path d="M734.5 513.5l3.16-8.43m3.17-8.44l6.34-16.87m3.17-8.44l6.33-16.88m3.17-8.44l6.34-16.88m3.17-8.44l6.34-16.88m3.16-8.44l3.17-8.44" stroke="#5e5e5e" stroke-width="2" fill="none"/><path d="M735.43 513.84l-.64 1.7-1.32-2.2.08-.2z" fill="#5e5e5e"/><path d="M787.4 372.63l-.68 14.98-8.68-3.25z" stroke="#5e5e5e" stroke-width="2" fill="#5e5e5e"/><use xlink:href="#o" transform="matrix(1,0,0,1,675.0517117537075,420.8381176808218) translate(0 14.222222222222223)"/><path d="M1080 620c0 33.14-35.82 60-80 60s-80-26.86-80-60 35.82-60 80-60 80 26.86 80 60z" stroke="#5e5e5e" stroke-width="3" fill="#fff"/><use xlink:href="#p" transform="matrix(1,0,0,1,920,560) translate(45.080000000000005 29.4)"/><use xlink:href="#q" transform="matrix(1,0,0,1,920,560) translate(16.555 51)"/><use xlink:href="#r" transform="matrix(1,0,0,1,920,560) translate(89.555 51)"/><use xlink:href="#s" transform="matrix(1,0,0,1,920,560) translate(109.555 51)"/><use xlink:href="#t" transform="matrix(1,0,0,1,920,560) translate(48.055 72.60000000000001)"/><use xlink:href="#u" transform="matrix(1,0,0,1,920,560) translate(67.005 72.60000000000001)"/><use xlink:href="#v" transform="matrix(1,0,0,1,920,560) translate(36.080000000000005 94.20000000000002)"/><path d="M733.13 568.85l9.3 2.57m9.32 2.57l18.6 5.12m9.32 2.57l18.6 5.13m9.32 2.57l18.6 5.13m9.3 2.57l18.63 5.14m9.3 2.57l18.62 5.14m9.3 2.57l9.3 2.58" stroke="#5e5e5e" stroke-width="2" fill="none"/><path d="M733.42 567.9l-.53 1.92-1.33-.36.05-.07 1.14-1.7z" fill="#5e5e5e"/><path d="M915.38 619.14l-14.98.67 2.46-8.92z" stroke="#5e5e5e" stroke-width="2" fill="#5e5e5e"/><use xlink:href="#o" transform="matrix(1,0,0,1,803.1908414220693,568.876074209825) translate(0 14.222222222222223)"/><path d="M1080 480c0 33.14-35.82 60-80 60s-80-26.86-80-60 35.82-60 80-60 80 26.86 80 60z" stroke="#5e5e5e" stroke-width="3" fill="#fff"/><use xlink:href="#w" transform="matrix(1,0,0,1,920,420) translate(25.154999999999987 51.9)"/><use xlink:href="#x" transform="matrix(1,0,0,1,920,420) translate(92.95500000000001 51.9)"/><use xlink:href="#y" transform="matrix(1,0,0,1,920,420) translate(36.57999999999999 73.5)"/><path d="M742.45 539.68l8.8-3m8.8-2.97l17.63-5.96m8.8-3l17.62-5.96m8.8-3l17.62-5.96m8.8-2.98l17.62-5.97m8.8-3l17.62-5.96m8.8-2.97l8.82-3" stroke="#5e5e5e" stroke-width="2" fill="none"/><path d="M742.8 540.62l-1.33.45.03-1.05v-.43l-.03-.65.68-.23z" fill="#5e5e5e"/><path d="M915.44 481.04L903.4 490l-2.96-8.77z" stroke="#5e5e5e" stroke-width="2" fill="#5e5e5e"/><use xlink:href="#o" transform="matrix(1,0,0,1,762.8688667359935,486.0545893154309) translate(0 14.222222222222223)"/><path d="M1000 780c0 33.14-35.82 60-80 60s-80-26.86-80-60 35.82-60 80-60 80 26.86 80 60z" stroke="#5e5e5e" stroke-width="3" fill="#fff"/><use xlink:href="#z" transform="matrix(1,0,0,1,840,720) translate(24.579999999999995 40.65)"/><use xlink:href="#A" transform="matrix(1,0,0,1,840,720) translate(61.58 40.65)"/><use xlink:href="#r" transform="matrix(1,0,0,1,840,720) translate(35.08 62.25)"/><use xlink:href="#B" transform="matrix(1,0,0,1,840,720) translate(55.08 62.25)"/><use xlink:href="#C" transform="matrix(1,0,0,1,840,720) translate(77.97999999999999 62.25)"/><use xlink:href="#D" transform="matrix(1,0,0,1,840,720) translate(54.55499999999999 83.85000000000001)"/><path d="M708.9 590.3l8 7.26m8 7.26l16.04 14.52m8 7.26l16.03 14.52m8 7.26L789 662.9m8 7.26l16.03 14.52m8 7.26l16.04 14.52m8 7.26l8.02 7.26" stroke="#5e5e5e" stroke-width="2" fill="none"/><path d="M709.58 589.58l-1.34 1.48-1.04-.94 1.2-.6.66-.42z" fill="#5e5e5e"/><path d="M864.4 731.24l-13.68-6.15 6.22-6.88z" stroke="#5e5e5e" stroke-width="2" fill="#5e5e5e"/><g><use xlink:href="#o" transform="matrix(1,0,0,1,805.7284307382114,657.7844959940714) translate(0 14.222222222222223)"/></g><path d="M800 820c0 33.14-35.82 60-80 60s-80-26.86-80-60 35.82-60 80-60 80 26.86 80 60z" stroke="#5e5e5e" stroke-width="3" fill="#fff"/><g><use xlink:href="#E" transform="matrix(1,0,0,1,640,760) translate(42.529999999999994 31.410000000000004)"/><use xlink:href="#F" transform="matrix(1,0,0,1,640,760) translate(17.12999999999999 53.01)"/><use xlink:href="#G" transform="matrix(1,0,0,1,640,760) translate(95.98 53.01)"/><use xlink:href="#r" transform="matrix(1,0,0,1,640,760) translate(30.08 74.61)"/><use xlink:href="#B" transform="matrix(1,0,0,1,640,760) translate(50.08 74.61)"/><use xlink:href="#H" transform="matrix(1,0,0,1,640,760) translate(72.97999999999999 74.61)"/><use xlink:href="#I" transform="matrix(1,0,0,1,640,760) translate(62.505 96.21000000000001)"/></g><path d="M681.43 600.36l2.28 9.35m2.3 9.35l4.55 18.7m2.28 9.33l4.55 18.7m2.28 9.34l4.56 18.68m2.28 9.35l4.56 18.7m2.28 9.33l2.28 9.35" stroke="#5e5e5e" stroke-width="2" fill="none"/><path d="M682.4 600.15l-1.94.48-.25-1.05.6-.1 1.37-.3z" fill="#5e5e5e"/><path d="M719.23 755.36l-7.88-12.77 9-2.2z" stroke="#5e5e5e" stroke-width="2" fill="#5e5e5e"/><g><use xlink:href="#o" transform="matrix(1,0,0,1,715.0721921896,694.2944980913835) translate(0 14.222222222222223)"/></g><path d="M1400 426c0-3.3 2.7-6 6-6h148c3.3 0 6 2.7 6 6v108c0 3.3-2.7 6-6 6h-148c-3.3 0-6-2.7-6-6z" stroke="#5e5e5e" stroke-width="3" fill="#fff"/><g><use xlink:href="#J" transform="matrix(1,0,0,1,1400,420) translate(50.12999999999999 63.15)"/></g><path d="M1082.5 480h315" stroke="#5e5e5e" stroke-width="2" fill="none"/><path d="M1082.53 481h-1.06l.03-.98v-.43l-.02-.6h1.05zM1398.5 481h-1.03v-2h1.03z" fill="#5e5e5e"/><path d="M1360 426c0-3.3 2.7-6 6-6h228c3.3 0 6 2.7 6 6v48c0 3.3-2.7 6-6 6h-228c-3.3 0-6-2.7-6-6z" fill="none"/><g><use xlink:href="#K" transform="matrix(1,0,0,1,1360,420) translate(69.41358024691358 34.44444444444444)"/></g><defs><path fill="#333" d="M63-220v92h138v28H63V0H30v-248h175v28H63" id="L"/><path fill="#333" d="M84 4C-5 8 30-112 23-190h32v120c0 31 7 50 39 49 72-2 45-101 50-169h31l1 190h-30c-1-10 1-25-2-33-11 22-28 36-60 37" id="M"/><path fill="#333" d="M24 0v-261h32V0H24" id="N"/><path fill="#333" d="M101-234c-31-9-42 10-38 44h38v23H63V0H32v-167H5v-23h27c-7-52 17-82 69-68v24" id="O"/><path fill="#333" d="M24-231v-30h32v30H24zM24 0v-190h32V0H24" id="P"/><g id="a"><use transform="matrix(0.06172839506172839,0,0,0.06172839506172839,0,0)" xlink:href="#L"/><use transform="matrix(0.06172839506172839,0,0,0.06172839506172839,13.518518518518517,0)" xlink:href="#M"/><use transform="matrix(0.06172839506172839,0,0,0.06172839506172839,25.864197530864196,0)" xlink:href="#N"/><use transform="matrix(0.06172839506172839,0,0,0.06172839506172839,30.74074074074074,0)" xlink:href="#O"/><use transform="matrix(0.06172839506172839,0,0,0.06172839506172839,36.91358024691358,0)" xlink:href="#P"/><use transform="matrix(0.06172839506172839,0,0,0.06172839506172839,41.79012345679013,0)" xlink:href="#N"/><use transform="matrix(0.06172839506172839,0,0,0.06172839506172839,46.66666666666667,0)" xlink:href="#N"/></g><path fill="#333" d="M140-251c81 0 123 46 123 126C263-46 219 4 140 4 59 4 17-45 17-125s42-126 123-126zm0 227c63 0 89-41 89-101s-29-99-89-99c-61 0-89 39-89 99S79-25 140-24" id="Q"/><path fill="#333" d="M114-163C36-179 61-72 57 0H25l-1-190h30c1 12-1 29 2 39 6-27 23-49 58-41v29" id="R"/><path fill="#333" d="M85-194c31 0 48 13 60 33l-1-100h32l1 261h-30c-2-10 0-23-3-31C134-8 116 4 85 4 32 4 16-35 15-94c0-66 23-100 70-100zm9 24c-40 0-46 34-46 75 0 40 6 74 45 74 42 0 51-32 51-76 0-42-9-74-50-73" id="S"/><path fill="#333" d="M100-194c63 0 86 42 84 106H49c0 40 14 67 53 68 26 1 43-12 49-29l28 8c-11 28-37 45-77 45C44 4 14-33 15-96c1-61 26-98 85-98zm52 81c6-60-76-77-97-28-3 7-6 17-6 28h103" id="T"/><g id="b"><use transform="matrix(0.06172839506172839,0,0,0.06172839506172839,0,0)" xlink:href="#Q"/><use transform="matrix(0.06172839506172839,0,0,0.06172839506172839,17.28395061728395,0)" xlink:href="#R"/><use transform="matrix(0.06172839506172839,0,0,0.06172839506172839,24.629629629629626,0)" xlink:href="#S"/><use transform="matrix(0.06172839506172839,0,0,0.06172839506172839,36.9753086419753,0)" xlink:href="#T"/><use transform="matrix(0.06172839506172839,0,0,0.06172839506172839,49.32098765432098,0)" xlink:href="#R"/></g><path fill="#333" d="M185-189c-5-48-123-54-124 2 14 75 158 14 163 119 3 78-121 87-175 55-17-10-28-26-33-46l33-7c5 56 141 63 141-1 0-78-155-14-162-118-5-82 145-84 179-34 5 7 8 16 11 25" id="U"/><path fill="#333" d="M179-190L93 31C79 59 56 82 12 73V49c39 6 53-20 64-50L1-190h34L92-34l54-156h33" id="V"/><path fill="#333" d="M135-143c-3-34-86-38-87 0 15 53 115 12 119 90S17 21 10-45l28-5c4 36 97 45 98 0-10-56-113-15-118-90-4-57 82-63 122-42 12 7 21 19 24 35" id="W"/><path fill="#333" d="M59-47c-2 24 18 29 38 22v24C64 9 27 4 27-40v-127H5v-23h24l9-43h21v43h35v23H59v120" id="X"/><path fill="#333" d="M210-169c-67 3-38 105-44 169h-31v-121c0-29-5-50-35-48C34-165 62-65 56 0H25l-1-190h30c1 10-1 24 2 32 10-44 99-50 107 0 11-21 27-35 58-36 85-2 47 119 55 194h-31v-121c0-29-5-49-35-48" id="Y"/><g id="c"><use transform="matrix(0.06172839506172839,0,0,0.06172839506172839,0,0)" xlink:href="#U"/><use transform="matrix(0.06172839506172839,0,0,0.06172839506172839,14.814814814814813,0)" xlink:href="#V"/><use transform="matrix(0.06172839506172839,0,0,0.06172839506172839,25.925925925925924,0)" xlink:href="#W"/><use transform="matrix(0.06172839506172839,0,0,0.06172839506172839,37.03703703703704,0)" xlink:href="#X"/><use transform="matrix(0.06172839506172839,0,0,0.06172839506172839,43.20987654320988,0)" xlink:href="#T"/><use transform="matrix(0.06172839506172839,0,0,0.06172839506172839,55.55555555555556,0)" xlink:href="#Y"/></g><path fill="#333" d="M30-248c87 1 191-15 191 75 0 78-77 80-158 76V0H30v-248zm33 125c57 0 124 11 124-50 0-59-68-47-124-48v98" id="Z"/><path fill="#333" d="M141-36C126-15 110 5 73 4 37 3 15-17 15-53c-1-64 63-63 125-63 3-35-9-54-41-54-24 1-41 7-42 31l-33-3c5-37 33-52 76-52 45 0 72 20 72 64v82c-1 20 7 32 28 27v20c-31 9-61-2-59-35zM48-53c0 20 12 33 32 33 41-3 63-29 60-74-43 2-92-5-92 41" id="aa"/><path fill="#333" d="M117-194c89-4 53 116 60 194h-32v-121c0-31-8-49-39-48C34-167 62-67 57 0H25l-1-190h30c1 10-1 24 2 32 11-22 29-35 61-36" id="ab"/><g id="d"><use transform="matrix(0.06172839506172839,0,0,0.06172839506172839,0,0)" xlink:href="#Z"/><use transform="matrix(0.06172839506172839,0,0,0.06172839506172839,14.814814814814813,0)" xlink:href="#N"/><use transform="matrix(0.06172839506172839,0,0,0.06172839506172839,19.691358024691354,0)" xlink:href="#aa"/><use transform="matrix(0.06172839506172839,0,0,0.06172839506172839,32.03703703703703,0)" xlink:href="#ab"/><use transform="matrix(0.06172839506172839,0,0,0.06172839506172839,44.38271604938271,0)" xlink:href="#ab"/><use transform="matrix(0.06172839506172839,0,0,0.06172839506172839,56.728395061728385,0)" xlink:href="#T"/><use transform="matrix(0.06172839506172839,0,0,0.06172839506172839,69.07407407407406,0)" xlink:href="#R"/></g><path d="M185-189c-5-48-123-54-124 2 14 75 158 14 163 119 3 78-121 87-175 55-17-10-28-26-33-46l33-7c5 56 141 63 141-1 0-78-155-14-162-118-5-82 145-84 179-34 5 7 8 16 11 25" id="ac"/><path d="M100-194c63 0 86 42 84 106H49c0 40 14 67 53 68 26 1 43-12 49-29l28 8c-11 28-37 45-77 45C44 4 14-33 15-96c1-61 26-98 85-98zm52 81c6-60-76-77-97-28-3 7-6 17-6 28h103" id="ad"/><path d="M24 0v-261h32V0H24" id="ae"/><path d="M96-169c-40 0-48 33-48 73s9 75 48 75c24 0 41-14 43-38l32 2c-6 37-31 61-74 61-59 0-76-41-82-99-10-93 101-131 147-64 4 7 5 14 7 22l-32 3c-4-21-16-35-41-35" id="af"/><path d="M59-47c-2 24 18 29 38 22v24C64 9 27 4 27-40v-127H5v-23h24l9-43h21v43h35v23H59v120" id="ag"/><g id="e"><use transform="matrix(0.05,0,0,0.05,0,0)" xlink:href="#ac"/><use transform="matrix(0.05,0,0,0.05,12,0)" xlink:href="#ad"/><use transform="matrix(0.05,0,0,0.05,22,0)" xlink:href="#ae"/><use transform="matrix(0.05,0,0,0.05,25.950000000000003,0)" xlink:href="#ad"/><use transform="matrix(0.05,0,0,0.05,35.95,0)" xlink:href="#af"/><use transform="matrix(0.05,0,0,0.05,44.95,0)" xlink:href="#ag"/></g><path d="M212-179c-10-28-35-45-73-45-59 0-87 40-87 99 0 60 29 101 89 101 43 0 62-24 78-52l27 14C228-24 195 4 139 4 59 4 22-46 18-125c-6-104 99-153 187-111 19 9 31 26 39 46" id="ah"/><path d="M141-36C126-15 110 5 73 4 37 3 15-17 15-53c-1-64 63-63 125-63 3-35-9-54-41-54-24 1-41 7-42 31l-33-3c5-37 33-52 76-52 45 0 72 20 72 64v82c-1 20 7 32 28 27v20c-31 9-61-2-59-35zM48-53c0 20 12 33 32 33 41-3 63-29 60-74-43 2-92-5-92 41" id="ai"/><path d="M114-163C36-179 61-72 57 0H25l-1-190h30c1 12-1 29 2 39 6-27 23-49 58-41v29" id="aj"/><path d="M24-231v-30h32v30H24zM24 0v-190h32V0H24" id="ak"/><g id="f"><use transform="matrix(0.05,0,0,0.05,0,0)" xlink:href="#ah"/><use transform="matrix(0.05,0,0,0.05,12.950000000000001,0)" xlink:href="#ai"/><use transform="matrix(0.05,0,0,0.05,22.950000000000003,0)" xlink:href="#aj"/><use transform="matrix(0.05,0,0,0.05,28.900000000000002,0)" xlink:href="#aj"/><use transform="matrix(0.05,0,0,0.05,34.85,0)" xlink:href="#ak"/><use transform="matrix(0.05,0,0,0.05,38.800000000000004,0)" xlink:href="#ad"/><use transform="matrix(0.05,0,0,0.05,48.800000000000004,0)" xlink:href="#aj"/></g><path d="M101-234c-31-9-42 10-38 44h38v23H63V0H32v-167H5v-23h27c-7-52 17-82 69-68v24" id="al"/><path d="M100-194c62-1 85 37 85 99 1 63-27 99-86 99S16-35 15-95c0-66 28-99 85-99zM99-20c44 1 53-31 53-75 0-43-8-75-51-75s-53 32-53 75 10 74 51 75" id="am"/><g id="g"><use transform="matrix(0.05,0,0,0.05,0,0)" xlink:href="#al"/><use transform="matrix(0.05,0,0,0.05,5,0)" xlink:href="#am"/><use transform="matrix(0.05,0,0,0.05,15,0)" xlink:href="#aj"/></g><path d="M85-194c31 0 48 13 60 33l-1-100h32l1 261h-30c-2-10 0-23-3-31C134-8 116 4 85 4 32 4 16-35 15-94c0-66 23-100 70-100zm9 24c-40 0-46 34-46 75 0 40 6 74 45 74 42 0 51-32 51-76 0-42-9-74-50-73" id="an"/><g id="h"><use transform="matrix(0.05,0,0,0.05,0,0)" xlink:href="#am"/><use transform="matrix(0.05,0,0,0.05,10,0)" xlink:href="#aj"/><use transform="matrix(0.05,0,0,0.05,15.949999999999998,0)" xlink:href="#an"/><use transform="matrix(0.05,0,0,0.05,25.950000000000003,0)" xlink:href="#ad"/><use transform="matrix(0.05,0,0,0.05,35.95,0)" xlink:href="#aj"/></g><path d="M115-194c55 1 70 41 70 98S169 2 115 4C84 4 66-9 55-30l1 105H24l-1-265h31l2 30c10-21 28-34 59-34zm-8 174c40 0 45-34 45-75s-6-73-45-74c-42 0-51 32-51 76 0 43 10 73 51 73" id="ao"/><g id="i"><use transform="matrix(0.05,0,0,0.05,0,0)" xlink:href="#ag"/><use transform="matrix(0.05,0,0,0.05,5,0)" xlink:href="#aj"/><use transform="matrix(0.05,0,0,0.05,10.95,0)" xlink:href="#ak"/><use transform="matrix(0.05,0,0,0.05,14.899999999999999,0)" xlink:href="#ao"/></g><path d="M30 0v-248h187v28H63v79h144v27H63v87h162V0H30" id="ap"/><path d="M117-194c89-4 53 116 60 194h-32v-121c0-31-8-49-39-48C34-167 62-67 57 0H25l-1-190h30c1 10-1 24 2 32 11-22 29-35 61-36" id="aq"/><path d="M135-143c-3-34-86-38-87 0 15 53 115 12 119 90S17 21 10-45l28-5c4 36 97 45 98 0-10-56-113-15-118-90-4-57 82-63 122-42 12 7 21 19 24 35" id="ar"/><path d="M84 4C-5 8 30-112 23-190h32v120c0 31 7 50 39 49 72-2 45-101 50-169h31l1 190h-30c-1-10 1-25-2-33-11 22-28 36-60 37" id="as"/><g id="j"><use transform="matrix(0.05,0,0,0.05,0,0)" xlink:href="#ap"/><use transform="matrix(0.05,0,0,0.05,12,0)" xlink:href="#aq"/><use transform="matrix(0.05,0,0,0.05,22,0)" xlink:href="#ar"/><use transform="matrix(0.05,0,0,0.05,31,0)" xlink:href="#as"/><use transform="matrix(0.05,0,0,0.05,41,0)" xlink:href="#aj"/><use transform="matrix(0.05,0,0,0.05,46.95,0)" xlink:href="#ad"/></g><path d="M210-169c-67 3-38 105-44 169h-31v-121c0-29-5-50-35-48C34-165 62-65 56 0H25l-1-190h30c1 10-1 24 2 32 10-44 99-50 107 0 11-21 27-35 58-36 85-2 47 119 55 194h-31v-121c0-29-5-49-35-48" id="at"/><g id="k"><use transform="matrix(0.05,0,0,0.05,0,0)" xlink:href="#at"/><use transform="matrix(0.05,0,0,0.05,14.950000000000001,0)" xlink:href="#as"/><use transform="matrix(0.05,0,0,0.05,24.950000000000003,0)" xlink:href="#ae"/><use transform="matrix(0.05,0,0,0.05,28.900000000000002,0)" xlink:href="#ag"/><use transform="matrix(0.05,0,0,0.05,33.900000000000006,0)" xlink:href="#ak"/><use transform="matrix(0.05,0,0,0.05,37.85000000000001,0)" xlink:href="#ao"/><use transform="matrix(0.05,0,0,0.05,47.85000000000001,0)" xlink:href="#ae"/><use transform="matrix(0.05,0,0,0.05,51.80000000000001,0)" xlink:href="#ad"/></g><g id="l"><use transform="matrix(0.05,0,0,0.05,0,0)" xlink:href="#ag"/><use transform="matrix(0.05,0,0,0.05,5,0)" xlink:href="#aj"/><use transform="matrix(0.05,0,0,0.05,10.95,0)" xlink:href="#ak"/><use transform="matrix(0.05,0,0,0.05,14.899999999999999,0)" xlink:href="#ao"/><use transform="matrix(0.05,0,0,0.05,24.9,0)" xlink:href="#ar"/></g><g id="m"><use transform="matrix(0.05,0,0,0.05,0,0)" xlink:href="#al"/><use transform="matrix(0.05,0,0,0.05,5,0)" xlink:href="#am"/><use transform="matrix(0.05,0,0,0.05,15,0)" xlink:href="#aj"/></g><g id="n"><use transform="matrix(0.05,0,0,0.05,0,0)" xlink:href="#am"/><use transform="matrix(0.05,0,0,0.05,10,0)" xlink:href="#aj"/><use transform="matrix(0.05,0,0,0.05,15.949999999999998,0)" xlink:href="#an"/><use transform="matrix(0.05,0,0,0.05,25.950000000000003,0)" xlink:href="#ad"/><use transform="matrix(0.05,0,0,0.05,35.95,0)" xlink:href="#aj"/></g><path fill="#333" d="M15-91v-56l181-69v40L49-119l147 57v40" id="au"/><path fill="#333" d="M85 4C-2 5 27-109 22-190h50c7 57-23 150 33 157 60-5 35-97 40-157h50l1 190h-47c-2-12 1-28-3-38-12 25-28 42-61 42" id="av"/><path fill="#333" d="M137-138c1-29-70-34-71-4 15 46 118 7 119 86 1 83-164 76-172 9l43-7c4 19 20 25 44 25 33 8 57-30 24-41C81-84 22-81 20-136c-2-80 154-74 161-7" id="aw"/><path fill="#333" d="M185-48c-13 30-37 53-82 52C43 2 14-33 14-96s30-98 90-98c62 0 83 45 84 108H66c0 31 8 55 39 56 18 0 30-7 34-22zm-45-69c5-46-57-63-70-21-2 6-4 13-4 21h74" id="ax"/><path fill="#333" d="M15-22v-40l146-57-146-57v-40l181 69v56" id="ay"/><g id="o"><use transform="matrix(0.04938271604938272,0,0,0.04938271604938272,0,0)" xlink:href="#au"/><use transform="matrix(0.04938271604938272,0,0,0.04938271604938272,10.370370370370372,0)" xlink:href="#au"/><use transform="matrix(0.04938271604938272,0,0,0.04938271604938272,20.740740740740744,0)" xlink:href="#av"/><use transform="matrix(0.04938271604938272,0,0,0.04938271604938272,31.555555555555557,0)" xlink:href="#aw"/><use transform="matrix(0.04938271604938272,0,0,0.04938271604938272,41.4320987654321,0)" xlink:href="#ax"/><use transform="matrix(0.04938271604938272,0,0,0.04938271604938272,51.308641975308646,0)" xlink:href="#aw"/><use transform="matrix(0.04938271604938272,0,0,0.04938271604938272,61.18518518518519,0)" xlink:href="#ay"/><use transform="matrix(0.04938271604938272,0,0,0.04938271604938272,71.55555555555556,0)" xlink:href="#ay"/></g><g id="p"><use transform="matrix(0.05,0,0,0.05,0,0)" xlink:href="#ac"/><use transform="matrix(0.05,0,0,0.05,12,0)" xlink:href="#ak"/><use transform="matrix(0.05,0,0,0.05,15.949999999999998,0)" xlink:href="#at"/><use transform="matrix(0.05,0,0,0.05,30.899999999999995,0)" xlink:href="#as"/><use transform="matrix(0.05,0,0,0.05,40.9,0)" xlink:href="#ae"/><use transform="matrix(0.05,0,0,0.05,44.85,0)" xlink:href="#ai"/><use transform="matrix(0.05,0,0,0.05,54.85,0)" xlink:href="#ag"/><use transform="matrix(0.05,0,0,0.05,59.85,0)" xlink:href="#ad"/></g><path d="M177-190C167-65 218 103 67 71c-23-6-38-20-44-43l32-5c15 47 100 32 89-28v-30C133-14 115 1 83 1 29 1 15-40 15-95c0-56 16-97 71-98 29-1 48 16 59 35 1-10 0-23 2-32h30zM94-22c36 0 50-32 50-73 0-42-14-75-50-75-39 0-46 34-46 75s6 73 46 73" id="az"/><g id="q"><use transform="matrix(0.05,0,0,0.05,0,0)" xlink:href="#ao"/><use transform="matrix(0.05,0,0,0.05,10,0)" xlink:href="#ai"/><use transform="matrix(0.05,0,0,0.05,20,0)" xlink:href="#ar"/><use transform="matrix(0.05,0,0,0.05,29,0)" xlink:href="#ar"/><use transform="matrix(0.05,0,0,0.05,38,0)" xlink:href="#ai"/><use transform="matrix(0.05,0,0,0.05,48,0)" xlink:href="#az"/><use transform="matrix(0.05,0,0,0.05,58,0)" xlink:href="#ad"/></g><g id="r"><use transform="matrix(0.05,0,0,0.05,0,0)" xlink:href="#am"/><use transform="matrix(0.05,0,0,0.05,10,0)" xlink:href="#al"/></g><g id="s"><use transform="matrix(0.05,0,0,0.05,0,0)" xlink:href="#ag"/><use transform="matrix(0.05,0,0,0.05,5,0)" xlink:href="#ak"/><use transform="matrix(0.05,0,0,0.05,8.95,0)" xlink:href="#at"/><use transform="matrix(0.05,0,0,0.05,23.9,0)" xlink:href="#ad"/></g><g id="t"><use transform="matrix(0.05,0,0,0.05,0,0)" xlink:href="#ak"/><use transform="matrix(0.05,0,0,0.05,3.95,0)" xlink:href="#aq"/></g><path d="M27 0v-27h64v-190l-56 39v-29l58-41h29v221h61V0H27" id="aA"/><path d="M16-82v-28h88v28H16" id="aB"/><path d="M179-190L93 31C79 59 56 82 12 73V49c39 6 53-20 64-50L1-190h34L92-34l54-156h33" id="aC"/><g id="u"><use transform="matrix(0.05,0,0,0.05,0,0)" xlink:href="#aA"/><use transform="matrix(0.05,0,0,0.05,10,0)" xlink:href="#aB"/><use transform="matrix(0.05,0,0,0.05,15.949999999999998,0)" xlink:href="#an"/><use transform="matrix(0.05,0,0,0.05,25.950000000000003,0)" xlink:href="#ai"/><use transform="matrix(0.05,0,0,0.05,35.95,0)" xlink:href="#aC"/></g><g id="v"><use transform="matrix(0.05,0,0,0.05,0,0)" xlink:href="#ak"/><use transform="matrix(0.05,0,0,0.05,3.95,0)" xlink:href="#aq"/><use transform="matrix(0.05,0,0,0.05,13.949999999999998,0)" xlink:href="#af"/><use transform="matrix(0.05,0,0,0.05,22.95,0)" xlink:href="#aj"/><use transform="matrix(0.05,0,0,0.05,28.899999999999995,0)" xlink:href="#ad"/><use transform="matrix(0.05,0,0,0.05,38.9,0)" xlink:href="#at"/><use transform="matrix(0.05,0,0,0.05,53.85,0)" xlink:href="#ad"/><use transform="matrix(0.05,0,0,0.05,63.85,0)" xlink:href="#aq"/><use transform="matrix(0.05,0,0,0.05,73.85,0)" xlink:href="#ag"/><use transform="matrix(0.05,0,0,0.05,78.85,0)" xlink:href="#ar"/></g><g id="w"><use transform="matrix(0.05,0,0,0.05,0,0)" xlink:href="#ah"/><use transform="matrix(0.05,0,0,0.05,12.950000000000001,0)" xlink:href="#am"/><use transform="matrix(0.05,0,0,0.05,22.950000000000003,0)" xlink:href="#aq"/><use transform="matrix(0.05,0,0,0.05,32.95,0)" xlink:href="#al"/><use transform="matrix(0.05,0,0,0.05,37.95,0)" xlink:href="#ak"/><use transform="matrix(0.05,0,0,0.05,41.900000000000006,0)" xlink:href="#aj"/><use transform="matrix(0.05,0,0,0.05,47.85000000000001,0)" xlink:href="#at"/></g><g id="x"><use transform="matrix(0.05,0,0,0.05,0,0)" xlink:href="#am"/><use transform="matrix(0.05,0,0,0.05,10,0)" xlink:href="#aj"/><use transform="matrix(0.05,0,0,0.05,15.949999999999998,0)" xlink:href="#an"/><use transform="matrix(0.05,0,0,0.05,25.950000000000003,0)" xlink:href="#ad"/><use transform="matrix(0.05,0,0,0.05,35.95,0)" xlink:href="#aj"/></g><g id="y"><use transform="matrix(0.05,0,0,0.05,0,0)" xlink:href="#af"/><use transform="matrix(0.05,0,0,0.05,9,0)" xlink:href="#am"/><use transform="matrix(0.05,0,0,0.05,19,0)" xlink:href="#at"/><use transform="matrix(0.05,0,0,0.05,33.95,0)" xlink:href="#ao"/><use transform="matrix(0.05,0,0,0.05,43.95,0)" xlink:href="#ae"/><use transform="matrix(0.05,0,0,0.05,47.900000000000006,0)" xlink:href="#ad"/><use transform="matrix(0.05,0,0,0.05,57.900000000000006,0)" xlink:href="#ag"/><use transform="matrix(0.05,0,0,0.05,62.900000000000006,0)" xlink:href="#ak"/><use transform="matrix(0.05,0,0,0.05,66.85000000000001,0)" xlink:href="#am"/><use transform="matrix(0.05,0,0,0.05,76.85000000000001,0)" xlink:href="#aq"/></g><g id="z"><use transform="matrix(0.05,0,0,0.05,0,0)" xlink:href="#ac"/><use transform="matrix(0.05,0,0,0.05,12,0)" xlink:href="#ad"/><use transform="matrix(0.05,0,0,0.05,22,0)" xlink:href="#ad"/></g><g id="A"><use transform="matrix(0.05,0,0,0.05,0,0)" xlink:href="#ar"/><use transform="matrix(0.05,0,0,0.05,9,0)" xlink:href="#as"/><use transform="matrix(0.05,0,0,0.05,19,0)" xlink:href="#at"/><use transform="matrix(0.05,0,0,0.05,33.95,0)" xlink:href="#at"/><use transform="matrix(0.05,0,0,0.05,48.900000000000006,0)" xlink:href="#ai"/><use transform="matrix(0.05,0,0,0.05,58.900000000000006,0)" xlink:href="#aj"/><use transform="matrix(0.05,0,0,0.05,64.85000000000001,0)" xlink:href="#aC"/></g><g id="B"><use transform="matrix(0.05,0,0,0.05,0,0)" xlink:href="#ai"/><use transform="matrix(0.05,0,0,0.05,10,0)" xlink:href="#ae"/><use transform="matrix(0.05,0,0,0.05,13.949999999999998,0)" xlink:href="#ae"/></g><path d="M108 0H70L1-190h34L89-25l56-165h34" id="aD"/><g id="C"><use transform="matrix(0.05,0,0,0.05,0,0)" xlink:href="#ai"/><use transform="matrix(0.05,0,0,0.05,10,0)" xlink:href="#af"/><use transform="matrix(0.05,0,0,0.05,19,0)" xlink:href="#ag"/><use transform="matrix(0.05,0,0,0.05,24,0)" xlink:href="#ak"/><use transform="matrix(0.05,0,0,0.05,27.950000000000003,0)" xlink:href="#aD"/><use transform="matrix(0.05,0,0,0.05,36.95,0)" xlink:href="#ad"/></g><g id="D"><use transform="matrix(0.05,0,0,0.05,0,0)" xlink:href="#am"/><use transform="matrix(0.05,0,0,0.05,10,0)" xlink:href="#aj"/><use transform="matrix(0.05,0,0,0.05,15.949999999999998,0)" xlink:href="#an"/><use transform="matrix(0.05,0,0,0.05,25.950000000000003,0)" xlink:href="#ad"/><use transform="matrix(0.05,0,0,0.05,35.95,0)" xlink:href="#aj"/><use transform="matrix(0.05,0,0,0.05,41.900000000000006,0)" xlink:href="#ar"/></g><path d="M143 4C61 4 22-44 18-125c-5-107 100-154 193-111 17 8 29 25 37 43l-32 9c-13-25-37-40-76-40-61 0-88 39-88 99 0 61 29 100 91 101 35 0 62-11 79-27v-45h-74v-28h105v86C228-13 192 4 143 4" id="aE"/><g id="E"><use transform="matrix(0.05,0,0,0.05,0,0)" xlink:href="#aE"/><use transform="matrix(0.05,0,0,0.05,14,0)" xlink:href="#ad"/><use transform="matrix(0.05,0,0,0.05,24,0)" xlink:href="#aq"/><use transform="matrix(0.05,0,0,0.05,34,0)" xlink:href="#ad"/><use transform="matrix(0.05,0,0,0.05,44,0)" xlink:href="#aj"/><use transform="matrix(0.05,0,0,0.05,49.95,0)" xlink:href="#ai"/><use transform="matrix(0.05,0,0,0.05,59.95,0)" xlink:href="#ag"/><use transform="matrix(0.05,0,0,0.05,64.95,0)" xlink:href="#ad"/></g><g id="F"><use transform="matrix(0.05,0,0,0.05,0,0)" xlink:href="#ar"/><use transform="matrix(0.05,0,0,0.05,9,0)" xlink:href="#as"/><use transform="matrix(0.05,0,0,0.05,19,0)" xlink:href="#at"/><use transform="matrix(0.05,0,0,0.05,33.95,0)" xlink:href="#at"/><use transform="matrix(0.05,0,0,0.05,48.900000000000006,0)" xlink:href="#ai"/><use transform="matrix(0.05,0,0,0.05,58.900000000000006,0)" xlink:href="#aj"/><use transform="matrix(0.05,0,0,0.05,64.85000000000001,0)" xlink:href="#aC"/></g><g id="G"><use transform="matrix(0.05,0,0,0.05,0,0)" xlink:href="#aj"/><use transform="matrix(0.05,0,0,0.05,5.95,0)" xlink:href="#ad"/><use transform="matrix(0.05,0,0,0.05,15.949999999999998,0)" xlink:href="#ao"/><use transform="matrix(0.05,0,0,0.05,25.950000000000003,0)" xlink:href="#am"/><use transform="matrix(0.05,0,0,0.05,35.95,0)" xlink:href="#aj"/><use transform="matrix(0.05,0,0,0.05,41.900000000000006,0)" xlink:href="#ag"/></g><path d="M33 0v-248h34V0H33" id="aF"/><g id="H"><use transform="matrix(0.05,0,0,0.05,0,0)" xlink:href="#aF"/><use transform="matrix(0.05,0,0,0.05,5,0)" xlink:href="#aq"/><use transform="matrix(0.05,0,0,0.05,15,0)" xlink:href="#aD"/><use transform="matrix(0.05,0,0,0.05,24,0)" xlink:href="#am"/><use transform="matrix(0.05,0,0,0.05,34,0)" xlink:href="#ak"/><use transform="matrix(0.05,0,0,0.05,37.95,0)" xlink:href="#af"/><use transform="matrix(0.05,0,0,0.05,46.95,0)" xlink:href="#ad"/></g><g id="I"><use transform="matrix(0.05,0,0,0.05,0,0)" xlink:href="#an"/><use transform="matrix(0.05,0,0,0.05,10,0)" xlink:href="#ai"/><use transform="matrix(0.05,0,0,0.05,20,0)" xlink:href="#ag"/><use transform="matrix(0.05,0,0,0.05,25,0)" xlink:href="#ai"/></g><path d="M33-154v-36h34v36H33zM33 0v-36h34V0H33" id="aG"/><g id="J"><use transform="matrix(0.05,0,0,0.05,0,0)" xlink:href="#aG"/><use transform="matrix(0.05,0,0,0.05,5,0)" xlink:href="#ah"/><use transform="matrix(0.05,0,0,0.05,17.950000000000003,0)" xlink:href="#ai"/><use transform="matrix(0.05,0,0,0.05,27.950000000000003,0)" xlink:href="#aj"/><use transform="matrix(0.05,0,0,0.05,33.900000000000006,0)" xlink:href="#aj"/><use transform="matrix(0.05,0,0,0.05,39.85000000000001,0)" xlink:href="#ak"/><use transform="matrix(0.05,0,0,0.05,43.80000000000001,0)" xlink:href="#ad"/><use transform="matrix(0.05,0,0,0.05,53.80000000000001,0)" xlink:href="#aj"/></g><path fill="#333" d="M18-100v-36l175-74v27L42-118l151 64v27" id="aH"/><path fill="#333" d="M96-169c-40 0-48 33-48 73s9 75 48 75c24 0 41-14 43-38l32 2c-6 37-31 61-74 61-59 0-76-41-82-99-10-93 101-131 147-64 4 7 5 14 7 22l-32 3c-4-21-16-35-41-35" id="aI"/><path fill="#333" d="M100-194c62-1 85 37 85 99 1 63-27 99-86 99S16-35 15-95c0-66 28-99 85-99zM99-20c44 1 53-31 53-75 0-43-8-75-51-75s-53 32-53 75 10 74 51 75" id="aJ"/><path fill="#333" d="M18-27v-27l151-64-151-65v-27l175 74v36" id="aK"/><g id="K"><use transform="matrix(0.06172839506172839,0,0,0.06172839506172839,0,0)" xlink:href="#aH"/><use transform="matrix(0.06172839506172839,0,0,0.06172839506172839,12.962962962962962,0)" xlink:href="#aH"/><use transform="matrix(0.06172839506172839,0,0,0.06172839506172839,25.925925925925924,0)" xlink:href="#aa"/><use transform="matrix(0.06172839506172839,0,0,0.06172839506172839,38.2716049382716,0)" xlink:href="#aI"/><use transform="matrix(0.06172839506172839,0,0,0.06172839506172839,49.38271604938271,0)" xlink:href="#X"/><use transform="matrix(0.06172839506172839,0,0,0.06172839506172839,55.55555555555555,0)" xlink:href="#aJ"/><use transform="matrix(0.06172839506172839,0,0,0.06172839506172839,67.90123456790123,0)" xlink:href="#R"/><use transform="matrix(0.06172839506172839,0,0,0.06172839506172839,75.24691358024691,0)" xlink:href="#aK"/><use transform="matrix(0.06172839506172839,0,0,0.06172839506172839,88.20987654320987,0)" xlink:href="#aK"/></g></defs></g></svg>